<svg width="68" height="68" viewBox="0 0 68 68" fill="none" xmlns="http://www.w3.org/2000/svg">
<path d="M67.6 10C67.6 7.45395 66.5886 5.01215 64.7882 3.2118C62.9879 1.41145 60.5461 0.400024 58 0.400024C55.4539 0.400024 53.0122 1.41145 51.2118 3.2118C49.4115 5.01215 48.4 7.45395 48.4 10V58C48.4 60.5461 49.4115 62.9879 51.2118 64.7882C53.0122 66.5886 55.4539 67.6 58 67.6C60.5461 67.6 62.9879 66.5886 64.7882 64.7882C66.5886 62.9879 67.6 60.5461 67.6 58V10Z" fill="url(#paint0_linear_1_82)"/>
<path d="M43.6 24.4C43.6 21.854 42.5886 19.4122 40.7882 17.6118C38.9879 15.8115 36.5461 14.8 34 14.8C31.4539 14.8 29.0122 15.8115 27.2118 17.6118C25.4115 19.4122 24.4 21.854 24.4 24.4V58C24.4 60.5461 25.4115 62.9879 27.2118 64.7883C29.0122 66.5886 31.4539 67.6 34 67.6C36.5461 67.6 38.9879 66.5886 40.7882 64.7883C42.5886 62.9879 43.6 60.5461 43.6 58V24.4Z" fill="url(#paint1_linear_1_82)"/>
<path d="M19.6 38.8001C19.6 36.254 18.5886 33.8122 16.7882 32.0119C14.9879 30.2115 12.5461 29.2001 10 29.2001C7.45395 29.2001 5.01215 30.2115 3.2118 32.0119C1.41145 33.8122 0.400024 36.254 0.400024 38.8001V58.0001C0.400024 60.5462 1.41145 62.9879 3.2118 64.7883C5.01215 66.5886 7.45395 67.6001 10 67.6001C12.5461 67.6001 14.9879 66.5886 16.7882 64.7883C18.5886 62.9879 19.6 60.5462 19.6 58.0001V38.8001Z" fill="url(#paint2_linear_1_82)"/>
<defs>
<linearGradient id="paint0_linear_1_82" x1="65.0752" y1="-20.24" x2="113.963" y2="5.83843" gradientUnits="userSpaceOnUse">
<stop stop-color="#16BBDA"/>
<stop offset="1" stop-color="#0067BF"/>
</linearGradient>
<linearGradient id="paint1_linear_1_82" x1="26.2528" y1="1.89765" x2="69.7312" y2="30.8848" gradientUnits="userSpaceOnUse">
<stop stop-color="#16BBDA"/>
<stop offset="1" stop-color="#0067BF"/>
</linearGradient>
<linearGradient id="paint2_linear_1_82" x1="-0.799975" y1="7.60007" x2="33.3232" y2="38.8817" gradientUnits="userSpaceOnUse">
<stop stop-color="#16BBDA"/>
<stop offset="1" stop-color="#0067BF"/>
</linearGradient>
</defs>
</svg>
