<svg width="96" height="96" viewBox="0 0 96 96" fill="none" xmlns="http://www.w3.org/2000/svg">
<path d="M48 6.85718C25.2789 6.85718 6.85715 25.2789 6.85715 48C6.85715 70.7212 25.2789 89.1429 48 89.1429C70.7211 89.1429 89.1429 70.7212 89.1429 48C89.1429 25.2789 70.7211 6.85718 48 6.85718Z" fill="url(#paint0_linear_1_39)"/>
<path d="M47.976 26.2218C47.8872 25.5764 47.5567 24.9887 47.0513 24.5776C46.5459 24.1664 45.9033 23.9624 45.2533 24.0068C44.6033 24.0512 43.9944 24.3407 43.5496 24.8168C43.1048 25.2928 42.8573 25.92 42.8571 26.5715V50.5715L42.8811 50.9212C42.9657 51.5368 43.2702 52.101 43.7385 52.5094C44.2068 52.9179 44.8072 53.1429 45.4286 53.1429H62.5714L62.9211 53.1189C63.5666 53.0301 64.1542 52.6996 64.5654 52.1942C64.9765 51.6888 65.1805 51.0462 65.1361 50.3962C65.0917 49.7462 64.8022 49.1373 64.3261 48.6925C63.8501 48.2478 63.2229 48.0003 62.5714 48.0001H48V26.5715L47.976 26.2218Z" fill="url(#paint1_linear_1_39)"/>
<defs>
<linearGradient id="paint0_linear_1_39" x1="20.5714" y1="2.28689" x2="61.7143" y2="93.7132" gradientUnits="userSpaceOnUse">
<stop stop-color="#1EC8B0"/>
<stop offset="1" stop-color="#2764E7"/>
</linearGradient>
<linearGradient id="paint1_linear_1_39" x1="44.808" y1="28.4606" x2="37.4023" y2="51.7509" gradientUnits="userSpaceOnUse">
<stop stop-color="#FDFDFD"/>
<stop offset="1" stop-color="#D1D1FF"/>
</linearGradient>
</defs>
</svg>
