<svg width="81" height="81" viewBox="0 0 81 81" fill="none" xmlns="http://www.w3.org/2000/svg">
<path d="M14.875 0.5C11.0625 0.5 7.40618 2.0145 4.71034 4.71034C2.0145 7.40618 0.5 11.0625 0.5 14.875V55.125C0.5 58.9375 2.0145 62.5938 4.71034 65.2897C7.40618 67.9855 11.0625 69.5 14.875 69.5H55.125C58.9375 69.5 62.5938 67.9855 65.2897 65.2897C67.9855 62.5938 69.5 58.9375 69.5 55.125V14.875C69.5 11.0625 67.9855 7.40618 65.2897 4.71034C62.5938 2.0145 58.9375 0.5 55.125 0.5H14.875Z" fill="url(#paint0_linear_1_54)"/>
<path d="M14.875 0.5C11.0625 0.5 7.40618 2.0145 4.71034 4.71034C2.0145 7.40618 0.5 11.0625 0.5 14.875V55.125C0.5 58.9375 2.0145 62.5938 4.71034 65.2897C7.40618 67.9855 11.0625 69.5 14.875 69.5H55.125C58.9375 69.5 62.5938 67.9855 65.2897 65.2897C67.9855 62.5938 69.5 58.9375 69.5 55.125V14.875C69.5 11.0625 67.9855 7.40618 65.2897 4.71034C62.5938 2.0145 58.9375 0.5 55.125 0.5H14.875Z" fill="url(#paint1_radial_1_54)"/>
<path d="M14.875 0.5C11.0625 0.5 7.40618 2.0145 4.71034 4.71034C2.0145 7.40618 0.5 11.0625 0.5 14.875V55.125C0.5 58.9375 2.0145 62.5938 4.71034 65.2897C7.40618 67.9855 11.0625 69.5 14.875 69.5H55.125C58.9375 69.5 62.5938 67.9855 65.2897 65.2897C67.9855 62.5938 69.5 58.9375 69.5 55.125V14.875C69.5 11.0625 67.9855 7.40618 65.2897 4.71034C62.5938 2.0145 58.9375 0.5 55.125 0.5H14.875Z" fill="url(#paint2_radial_1_54)"/>
<path d="M51.4105 28.4105L31.2855 48.5355C31.0184 48.8032 30.7012 49.0156 30.3519 49.1606C30.0026 49.3055 29.6282 49.3801 29.25 49.3801C28.8718 49.3801 28.4974 49.3055 28.1481 49.1606C27.7988 49.0156 27.4816 48.8032 27.2145 48.5355L18.5895 39.9105C18.3222 39.6432 18.1102 39.3258 17.9655 38.9766C17.8208 38.6273 17.7464 38.253 17.7464 37.875C17.7464 37.4969 17.8208 37.1226 17.9655 36.7734C18.1102 36.4241 18.3222 36.1068 18.5895 35.8395C19.1293 35.2996 19.8615 34.9963 20.625 34.9963C21.003 34.9963 21.3774 35.0708 21.7266 35.2155C22.0759 35.3601 22.3932 35.5722 22.6605 35.8395L29.25 42.4347L47.3395 24.3395C47.8793 23.7996 48.6115 23.4963 49.375 23.4963C50.1385 23.4963 50.8707 23.7996 51.4105 24.3395C51.9504 24.8793 52.2536 25.6115 52.2536 26.375C52.2536 27.1384 51.9504 27.8706 51.4105 28.4105Z" fill="url(#paint3_linear_1_54)"/>
<path d="M81 66.625C81 73.7837 75.25 81 60.875 81C46.5 81 40.75 73.8125 40.75 66.625C40.75 64.3375 41.6587 62.1437 43.2762 60.5262C44.8937 58.9087 47.0875 58 49.375 58H72.375C74.6625 58 76.8563 58.9087 78.4738 60.5262C80.0913 62.1437 81 64.3375 81 66.625Z" fill="url(#paint4_linear_1_54)"/>
<path d="M81 66.625C81 73.7837 75.25 81 60.875 81C46.5 81 40.75 73.8125 40.75 66.625C40.75 64.3375 41.6587 62.1437 43.2762 60.5262C44.8937 58.9087 47.0875 58 49.375 58H72.375C74.6625 58 76.8563 58.9087 78.4738 60.5262C80.0913 62.1437 81 64.3375 81 66.625Z" fill="url(#paint5_linear_1_54)"/>
<path d="M72.375 40.75C72.375 43.8 71.1634 46.7251 69.0067 48.8817C66.8501 51.0384 63.925 52.25 60.875 52.25C57.825 52.25 54.8999 51.0384 52.7433 48.8817C50.5866 46.7251 49.375 43.8 49.375 40.75C49.375 37.7 50.5866 34.7749 52.7433 32.6183C54.8999 30.4616 57.825 29.25 60.875 29.25C63.925 29.25 66.8501 30.4616 69.0067 32.6183C71.1634 34.7749 72.375 37.7 72.375 40.75Z" fill="url(#paint6_linear_1_54)"/>
<defs>
<linearGradient id="paint0_linear_1_54" x1="2.96675" y1="13.4375" x2="50.5825" y2="62.9105" gradientUnits="userSpaceOnUse">
<stop stop-color="#36DFF1"/>
<stop offset="1" stop-color="#2764E7"/>
</linearGradient>
<radialGradient id="paint1_radial_1_54" cx="0" cy="0" r="1" gradientUnits="userSpaceOnUse" gradientTransform="translate(60.875 66.625) scale(28.75 19.9154)">
<stop stop-color="#4A43CB"/>
<stop offset="0.914" stop-color="#4A43CB" stop-opacity="0"/>
</radialGradient>
<radialGradient id="paint2_radial_1_54" cx="0" cy="0" r="1" gradientUnits="userSpaceOnUse" gradientTransform="translate(60.875 46.5) rotate(90) scale(14.375)">
<stop stop-color="#4A43CB"/>
<stop offset="1" stop-color="#4A43CB" stop-opacity="0"/>
</radialGradient>
<linearGradient id="paint3_linear_1_54" x1="24.3855" y1="25.4895" x2="39.6115" y2="74.6865" gradientUnits="userSpaceOnUse">
<stop stop-color="white"/>
<stop offset="1" stop-color="#B3E0FF"/>
</linearGradient>
<linearGradient id="paint4_linear_1_54" x1="50.3237" y1="61.059" x2="58.5865" y2="84.1568" gradientUnits="userSpaceOnUse">
<stop offset="0.125" stop-color="#BD96FF"/>
<stop offset="1" stop-color="#9C6CFE"/>
</linearGradient>
<linearGradient id="paint5_linear_1_54" x1="60.875" y1="55.263" x2="72.5303" y2="93.3625" gradientUnits="userSpaceOnUse">
<stop stop-color="#885EDB" stop-opacity="0"/>
<stop offset="1" stop-color="#E362F8"/>
</linearGradient>
<linearGradient id="paint6_linear_1_54" x1="54.8432" y1="32.309" x2="66.5675" y2="51.0253" gradientUnits="userSpaceOnUse">
<stop offset="0.125" stop-color="#BD96FF"/>
<stop offset="1" stop-color="#9C6CFE"/>
</linearGradient>
</defs>
</svg>
