<svg width="80" height="72" viewBox="0 0 80 72" fill="none" xmlns="http://www.w3.org/2000/svg">
<path d="M40 0C36.5522 0 33.2456 1.36964 30.8076 3.80761C28.3696 6.24558 27 9.55219 27 13C27 16.4478 28.3696 19.7544 30.8076 22.1924C33.2456 24.6304 36.5522 26 40 26C43.4478 26 46.7544 24.6304 49.1924 22.1924C51.6304 19.7544 53 16.4478 53 13C53 9.55219 51.6304 6.24558 49.1924 3.80761C46.7544 1.36964 43.4478 0 40 0Z" fill="url(#paint0_radial_1_93)"/>
<path d="M12 8C8.8174 8 5.76516 9.26428 3.51472 11.5147C1.26428 13.7652 0 16.8174 0 20C0 23.1826 1.26428 26.2348 3.51472 28.4853C5.76516 30.7357 8.8174 32 12 32C15.1826 32 18.2348 30.7357 20.4853 28.4853C22.7357 26.2348 24 23.1826 24 20C24 16.8174 22.7357 13.7652 20.4853 11.5147C18.2348 9.26428 15.1826 8 12 8Z" fill="url(#paint1_radial_1_93)"/>
<path d="M68 8C64.8174 8 61.7652 9.26428 59.5147 11.5147C57.2643 13.7652 56 16.8174 56 20C56 23.1826 57.2643 26.2348 59.5147 28.4853C61.7652 30.7357 64.8174 32 68 32C71.1826 32 74.2348 30.7357 76.4853 28.4853C78.7357 26.2348 80 23.1826 80 20C80 16.8174 78.7357 13.7652 76.4853 11.5147C74.2348 9.26428 71.1826 8 68 8Z" fill="url(#paint2_radial_1_93)"/>
<path d="M53.56 33.768C51.7672 33.2878 49.857 33.5393 48.2495 34.4672C46.6421 35.3951 45.4689 36.9233 44.988 38.716L42.14 49.34C40.9041 53.9516 41.5508 58.8653 43.9377 63.0001C46.3247 67.1349 50.2564 70.1521 54.868 71.388C59.4796 72.6239 64.3933 71.9773 68.5281 69.5903C72.6629 67.2033 75.6801 63.2716 76.916 58.66L79.76 48.032C80.2402 46.2392 79.9887 44.329 79.0609 42.7215C78.133 41.1141 76.6047 39.9409 74.812 39.46L53.56 33.768Z" fill="url(#paint3_radial_1_93)"/>
<path d="M26.44 33.768C28.2323 33.289 30.1414 33.5411 31.748 34.4689C33.3545 35.3966 34.5271 36.9242 35.008 38.716L37.856 49.34C39.0599 53.9405 38.3943 58.8304 36.0047 62.9418C33.6151 67.0533 29.6957 70.052 25.1024 71.2831C20.5092 72.5143 15.6153 71.8778 11.4898 69.5126C7.36432 67.1475 4.34236 63.2459 3.08399 58.66L0.23599 48.032C-0.00170982 47.144 -0.0621759 46.2179 0.0580439 45.3065C0.178264 44.3951 0.476815 43.5164 0.936652 42.7204C1.39649 41.9244 2.0086 41.2268 2.73805 40.6674C3.4675 40.1079 4.29999 39.6977 5.18799 39.46L26.44 33.768Z" fill="url(#paint4_radial_1_93)"/>
<path d="M29 32C27.1435 32 25.363 32.7375 24.0503 34.0503C22.7375 35.363 22 37.1435 22 39V54C22 58.7739 23.8964 63.3523 27.2721 66.7279C30.6477 70.1036 35.2261 72 40 72C44.7739 72 49.3523 70.1036 52.7279 66.7279C56.1036 63.3523 58 58.7739 58 54V39C58 37.1435 57.2625 35.363 55.9497 34.0503C54.637 32.7375 52.8565 32 51 32H29Z" fill="url(#paint5_radial_1_93)"/>
<defs>
<radialGradient id="paint0_radial_1_93" cx="0" cy="0" r="1" gradientUnits="userSpaceOnUse" gradientTransform="translate(37.4958 9.12922) rotate(59.931) scale(16.2399)">
<stop offset="0.339" stop-color="#3DCBFF"/>
<stop offset="1" stop-color="#14B1FF"/>
</radialGradient>
<radialGradient id="paint1_radial_1_93" cx="0" cy="0" r="1" gradientUnits="userSpaceOnUse" gradientTransform="translate(6.94875 15.277) rotate(47.573) scale(19.6788)">
<stop stop-color="#008CE2"/>
<stop offset="1" stop-color="#0068C6"/>
</radialGradient>
<radialGradient id="paint2_radial_1_93" cx="0" cy="0" r="1" gradientUnits="userSpaceOnUse" gradientTransform="translate(64.1484 14.7269) rotate(78.837) scale(17.6042)">
<stop stop-color="#0078D4"/>
<stop offset="1" stop-color="#004695"/>
</radialGradient>
<radialGradient id="paint3_radial_1_93" cx="0" cy="0" r="1" gradientUnits="userSpaceOnUse" gradientTransform="translate(54.5849 44.3141) rotate(78.837) scale(28.2242)">
<stop stop-color="#0078D4"/>
<stop offset="1" stop-color="#004695"/>
</radialGradient>
<radialGradient id="paint4_radial_1_93" cx="0" cy="0" r="1" gradientUnits="userSpaceOnUse" gradientTransform="translate(9.42799 35.328) rotate(61.056) scale(41.912 30.1682)">
<stop stop-color="#008CE2"/>
<stop offset="1" stop-color="#0068C6"/>
</radialGradient>
<radialGradient id="paint5_radial_1_93" cx="0" cy="0" r="1" gradientUnits="userSpaceOnUse" gradientTransform="translate(36.532 46.04) rotate(62.478) scale(24.3813 23.0423)">
<stop offset="0.339" stop-color="#3DCBFF"/>
<stop offset="1" stop-color="#14B1FF"/>
</radialGradient>
</defs>
</svg>
