<svg width="72" height="74" viewBox="0 0 72 74" fill="none" xmlns="http://www.w3.org/2000/svg">
<path d="M67.2 36.9999C67.2 35.7799 66.7154 34.6099 65.8527 33.7472C64.99 32.8845 63.82 32.3999 62.6 32.3999C61.38 32.3999 60.21 32.8845 59.3473 33.7472C58.4846 34.6099 58 35.7799 58 36.9999V69.1999C58 70.4199 58.4846 71.5899 59.3473 72.4526C60.21 73.3153 61.38 73.7999 62.6 73.7999C63.82 73.7999 64.99 73.3153 65.8527 72.4526C66.7154 71.5899 67.2 70.4199 67.2 69.1999V36.9999Z" fill="url(#paint0_linear_1_69)"/>
<path d="M30.4 46.2C30.4 44.98 29.9153 43.81 29.0527 42.9473C28.19 42.0846 27.02 41.6 25.8 41.6C24.58 41.6 23.41 42.0846 22.5473 42.9473C21.6846 43.81 21.2 44.98 21.2 46.2V69.2C21.2 70.42 21.6846 71.59 22.5473 72.4527C23.41 73.3153 24.58 73.8 25.8 73.8C27.02 73.8 28.19 73.3153 29.0527 72.4527C29.9153 71.59 30.4 70.42 30.4 69.2V46.2Z" fill="url(#paint1_linear_1_69)"/>
<path d="M12 59.9999C12 58.7799 11.5153 57.6099 10.6527 56.7472C9.79001 55.8845 8.61998 55.3999 7.39999 55.3999C6.17999 55.3999 5.00996 55.8845 4.1473 56.7472C3.28463 57.6099 2.79999 58.7799 2.79999 59.9999V69.1999C2.79999 70.4199 3.28463 71.5899 4.1473 72.4526C5.00996 73.3153 6.17999 73.7999 7.39999 73.7999C8.61998 73.7999 9.79001 73.3153 10.6527 72.4526C11.5153 71.5899 12 70.4199 12 69.1999V59.9999Z" fill="url(#paint2_linear_1_69)"/>
<path d="M44.2 50.7999C45.42 50.7999 46.59 51.2846 47.4527 52.1472C48.3153 53.0099 48.8 54.1799 48.8 55.3999V69.1999C48.8 70.4199 48.3153 71.59 47.4527 72.4526C46.59 73.3153 45.42 73.7999 44.2 73.7999C42.98 73.7999 41.81 73.3153 40.9473 72.4526C40.0846 71.59 39.6 70.4199 39.6 69.1999V55.3999C39.6 54.1799 40.0846 53.0099 40.9473 52.1472C41.81 51.2846 42.98 50.7999 44.2 50.7999Z" fill="url(#paint3_linear_1_69)"/>
<path fill-rule="evenodd" clip-rule="evenodd" d="M53.4 9.39995C52.18 9.39995 51.01 8.91531 50.1473 8.05264C49.2846 7.18998 48.8 6.01995 48.8 4.79995C48.8 3.57996 49.2846 2.40993 50.1473 1.54726C51.01 0.684592 52.18 0.199951 53.4 0.199951H67.2C68.42 0.199951 69.59 0.684592 70.4527 1.54726C71.3154 2.40993 71.8 3.57996 71.8 4.79995V18.6C71.8 19.8199 71.3154 20.99 70.4527 21.8526C69.59 22.7153 68.42 23.2 67.2 23.2C65.98 23.2 64.81 22.7153 63.9473 21.8526C63.0846 20.99 62.6 19.8199 62.6 18.6V15.9044L45.1522 33.3521C44.2896 34.2145 43.1197 34.699 41.9 34.699C40.6802 34.699 39.5104 34.2145 38.6478 33.3521L28.1 22.8044L8.35219 42.5522C7.48462 43.3901 6.32265 43.8537 5.11655 43.8433C3.91044 43.8328 2.75671 43.349 1.90383 42.4961C1.05095 41.6432 0.567173 40.4895 0.556692 39.2834C0.546212 38.0773 1.00987 36.9153 1.84779 36.0478L24.8478 13.0478C25.7104 12.1854 26.8802 11.7009 28.1 11.7009C29.3197 11.7009 30.4896 12.1854 31.3522 13.0478L41.9 23.5956L56.0956 9.39995H53.4Z" fill="url(#paint4_linear_1_69)"/>
<defs>
<linearGradient id="paint0_linear_1_69" x1="71.3998" y1="30.0125" x2="-1.4044" y2="73.7999" gradientUnits="userSpaceOnUse">
<stop stop-color="#0094F0"/>
<stop offset="1" stop-color="#2764E7"/>
</linearGradient>
<linearGradient id="paint1_linear_1_69" x1="71.3998" y1="30.0126" x2="-1.40441" y2="73.8" gradientUnits="userSpaceOnUse">
<stop stop-color="#0094F0"/>
<stop offset="1" stop-color="#2764E7"/>
</linearGradient>
<linearGradient id="paint2_linear_1_69" x1="71.3998" y1="30.0125" x2="-1.40441" y2="73.7999" gradientUnits="userSpaceOnUse">
<stop stop-color="#0094F0"/>
<stop offset="1" stop-color="#2764E7"/>
</linearGradient>
<linearGradient id="paint3_linear_1_69" x1="71.3998" y1="30.0125" x2="-1.40442" y2="73.7999" gradientUnits="userSpaceOnUse">
<stop stop-color="#0094F0"/>
<stop offset="1" stop-color="#2764E7"/>
</linearGradient>
<linearGradient id="paint4_linear_1_69" x1="3.00699" y1="43.9" x2="71.8" y2="-3.39725" gradientUnits="userSpaceOnUse">
<stop stop-color="#22918B"/>
<stop offset="1" stop-color="#20AC9D"/>
</linearGradient>
</defs>
</svg>
