<svg width="135" height="108" viewBox="0 0 135 108" fill="none" xmlns="http://www.w3.org/2000/svg">
<path d="M10.08 34.36C8.304 34.36 6.816 33.808 5.616 32.704C4.464 31.552 3.888 30.136 3.888 28.456C3.888 26.776 4.464 25.384 5.616 24.28C6.816 23.128 8.304 22.552 10.08 22.552C11.856 22.552 13.32 23.128 14.472 24.28C15.672 25.384 16.272 26.776 16.272 28.456C16.272 30.136 15.672 31.552 14.472 32.704C13.32 33.808 11.856 34.36 10.08 34.36ZM15.048 39.112V79H4.968V39.112H15.048ZM35.0871 25.72V79H25.0071V25.72H35.0871ZM94.5821 38.536C99.4781 38.536 103.414 40.048 106.39 43.072C109.414 46.048 110.926 50.224 110.926 55.6V79H100.846V56.968C100.846 53.848 100.054 51.472 98.4701 49.84C96.8861 48.16 94.7261 47.32 91.9901 47.32C89.2541 47.32 87.0701 48.16 85.4381 49.84C83.8541 51.472 83.0621 53.848 83.0621 56.968V79H72.9821V56.968C72.9821 53.848 72.1901 51.472 70.6061 49.84C69.0221 48.16 66.8621 47.32 64.1261 47.32C61.3421 47.32 59.1341 48.16 57.5021 49.84C55.9181 51.472 55.1261 53.848 55.1261 56.968V79H45.0461V39.112H55.1261V43.936C56.4221 42.256 58.0781 40.936 60.0941 39.976C62.1581 39.016 64.4141 38.536 66.8621 38.536C69.9821 38.536 72.7661 39.208 75.2141 40.552C77.6621 41.848 79.5581 43.72 80.9021 46.168C82.1981 43.864 84.0701 42.016 86.5181 40.624C89.0141 39.232 91.7021 38.536 94.5821 38.536ZM124.955 79.504C123.131 79.504 121.619 78.952 120.419 77.848C119.267 76.696 118.691 75.28 118.691 73.6C118.691 71.92 119.267 70.528 120.419 69.424C121.619 68.272 123.131 67.696 124.955 67.696C126.731 67.696 128.195 68.272 129.347 69.424C130.499 70.528 131.075 71.92 131.075 73.6C131.075 75.28 130.499 76.696 129.347 77.848C128.195 78.952 126.731 79.504 124.955 79.504Z" fill="black"/>
<circle cx="10" cy="29" r="7" fill="#00FFFF"/>
<circle cx="125" cy="73" r="7" fill="#00FFFF"/>
</svg>
